<svg
                width="298"
                height="252"
                viewBox="0 0 298 252"
                fill="none"
                xmlns="http://www.w3.org/2000/svg"
              >
                <path
                  d="M189.522 0.434271C194.726 -0.960119 200.031 2.11559 201.43 7.33892L242.592 160.956L279.958 150.944C285.162 149.55 290.467 152.625 291.866 157.849L297.12 177.458C298.52 182.681 295.464 187.997 290.26 189.391L61.3716 250.722C56.1676 252.116 50.8631 249.04 49.4635 243.817L0.523843 61.1717C-0.875745 55.9483 2.18027 50.6325 7.38422 49.2381L189.522 0.434271ZM46.3899 79.8105L79.8652 204.742L204.419 171.368L170.943 46.4365L46.3899 79.8105Z"
                  fill="url(#paint0_linear_58_553)"
                  fill-opacity="0.2"
                />
                <defs>
                  <linearGradient
                    id="paint0_linear_58_553"
                    x1="-0.710027"
                    y1="35.9353"
                    x2="205.949"
                    y2="231.601"
                    gradientUnits="userSpaceOnUse"
                  >
                    <stop stop-color="#AA21F9" />
                    <stop offset="0.34" stop-color="#F431D7" />
                    <stop offset="0.71" stop-color="#EB0D7F" />
                    <stop offset="1" stop-color="#E50040" />
                  </linearGradient>
                </defs>
              </svg>