<svg
                    width="129"
                    height="50"
                    viewBox="0 0 129 47"
                    fill="none"
                    xmlns="http://www.w3.org/2000/svg"
                  >
                    <rect
                      x="1.10706"
                      y="0.5"
                      width="126.786"
                      height="46"
                      rx="23"
                      stroke="url(#paint0_linear_192_126)"
                    />
                    <path
                      d="M26.4088 23.412H28.8208C30.6928 23.412 31.4848 22.53 31.4848 21.126C31.4848 19.668 30.6928 18.804 28.8208 18.804H26.4088V23.412ZM33.1588 21.126C33.1588 23.034 31.9348 24.762 28.8208 24.762H26.4088V30H24.7708V17.454H28.8208C31.7728 17.454 33.1588 19.074 33.1588 21.126ZM43.6186 30L42.6106 27.21H37.1386L36.1306 30H34.4026L38.9386 17.526H40.8286L45.3466 30H43.6186ZM42.1426 25.878L39.8746 19.542L37.6066 25.878H42.1426ZM50.3835 25.266L46.2795 17.454H48.0975L51.1935 23.808L54.2895 17.454H56.1075L52.0215 25.266V30H50.3835V25.266ZM70.86 17.436H72.498V30H70.86L64.272 20.01V30H62.634V17.436H64.272L70.86 27.408V17.436ZM87.2783 23.718C87.2783 27.48 84.5243 30.126 80.9783 30.126C77.4503 30.126 74.6783 27.48 74.6783 23.718C74.6783 19.956 77.4503 17.31 80.9783 17.31C84.5243 17.31 87.2783 19.956 87.2783 23.718ZM76.3523 23.718C76.3523 26.778 78.3323 28.704 80.9783 28.704C83.6243 28.704 85.6043 26.778 85.6043 23.718C85.6043 20.64 83.6243 18.732 80.9783 18.732C78.3323 18.732 76.3523 20.64 76.3523 23.718ZM91.9787 30.018L88.4687 17.454H90.2147L92.9507 28.092L95.9747 17.454H97.8107L100.691 28.056L103.445 17.454H105.209L101.573 30H99.7367L96.8207 19.902L93.7967 30L91.9787 30.018Z"
                      fill="url(#paint1_linear_192_126)"
                    />
                    <defs>
                      <linearGradient
                        id="paint0_linear_192_126"
                        x1="-80.223"
                        y1="6.68892"
                        x2="132.82"
                        y2="-0.41515"
                        gradientUnits="userSpaceOnUse"
                      >
                        <stop stop-color="#57E1FF" />
                        <stop offset="0.0001" stop-color="#80F0FF" />
                        <stop offset="0.6" stop-color="#514EFF" />
                        <stop offset="1" stop-color="#F921C9" />
                      </linearGradient>
                      <linearGradient
                        id="paint1_linear_192_126"
                        x1="-29.5011"
                        y1="13.8426"
                        x2="108.832"
                        y2="8.62705"
                        gradientUnits="userSpaceOnUse"
                      >
                        <stop stop-color="#57E1FF" />
                        <stop offset="0.0001" stop-color="#80F0FF" />
                        <stop offset="0.6" stop-color="#514EFF" />
                        <stop offset="1" stop-color="#F921C9" />
                      </linearGradient>
                    </defs>
                  </svg>