<svg
            width="310"
            height="76"
            viewBox="0 0 310 76"
            fill="none"
            xmlns="http://www.w3.org/2000/svg"
          >
            <path
              d="M155.005 4.92249V1"
              stroke="black"
              stroke-width="2"
              stroke-linecap="round"
              stroke-linejoin="round"
            />
            <path
              d="M168.385 9.73648L171.595 7.48276"
              stroke="black"
              stroke-width="2"
              stroke-linecap="round"
              stroke-linejoin="round"
            />
            <path
              d="M141.616 9.73648L138.405 7.48276"
              stroke="black"
              stroke-width="2"
              stroke-linecap="round"
              stroke-linejoin="round"
            />
            <path
              d="M164.728 22.4909C164.748 17.1011 160.187 12.6163 154.798 12.7282C149.409 12.8401 145.038 17.5104 145.282 22.8948C145.439 26.3605 147.558 29.6167 150.664 31.163V35.9438C150.671 36.2264 150.788 36.4951 150.991 36.6924C151.194 36.8897 151.465 37.0001 151.748 37H158.252C158.535 37.0001 158.806 36.8897 159.009 36.6924C159.211 36.4951 159.329 36.2264 159.336 35.9438V31.0796C162.539 29.485 164.684 26.0689 164.728 22.4909Z"
              stroke="black"
              stroke-width="2"
              stroke-linecap="round"
              stroke-linejoin="round"
            />
            <path
              d="M66.4508 62.412H68.8628C70.7348 62.412 71.5268 61.53 71.5268 60.126C71.5268 58.668 70.7348 57.804 68.8628 57.804H66.4508V62.412ZM73.2008 60.126C73.2008 62.034 71.9768 63.762 68.8628 63.762H66.4508V69H64.8128V56.454H68.8628C71.8148 56.454 73.2008 58.074 73.2008 60.126ZM76.8746 63.636V69H75.2366V59.136H76.8746V60.738C77.4326 59.64 78.4946 58.956 80.0606 58.956V60.648H79.6286C78.0626 60.648 76.8746 61.35 76.8746 63.636ZM91.3114 64.05C91.3114 67.182 89.0614 69.162 86.2534 69.162C83.4634 69.162 81.3394 67.182 81.3394 64.05C81.3394 60.936 83.5354 58.974 86.3254 58.974C89.1334 58.974 91.3114 60.936 91.3114 64.05ZM83.0134 64.05C83.0134 66.552 84.5434 67.722 86.2534 67.722C87.9634 67.722 89.6374 66.552 89.6374 64.05C89.6374 61.566 87.9994 60.396 86.3074 60.396C84.5794 60.396 83.0134 61.566 83.0134 64.05ZM93.7711 69V60.486H92.4931V59.136H93.7711V58.434C93.7711 56.238 94.8511 55.248 97.3711 55.248V56.616C95.8951 56.616 95.4091 57.156 95.4091 58.434V59.136H97.4791V60.486H95.4091V69H93.7711ZM103.583 60.36C101.981 60.36 100.649 61.422 100.469 63.348H106.697C106.715 61.422 105.275 60.36 103.583 60.36ZM108.191 65.958C107.687 67.758 106.103 69.162 103.655 69.162C100.847 69.162 98.7769 67.182 98.7769 64.05C98.7769 60.936 100.775 58.974 103.655 58.974C106.517 58.974 108.389 60.99 108.389 63.69C108.389 64.05 108.371 64.338 108.335 64.68H100.451C100.577 66.678 101.981 67.776 103.655 67.776C105.131 67.776 106.067 67.02 106.427 65.958H108.191ZM117.643 66.318C117.643 67.938 116.221 69.162 114.043 69.162C111.739 69.162 110.119 67.902 110.011 66.102H111.703C111.793 67.056 112.639 67.776 114.025 67.776C115.321 67.776 116.041 67.128 116.041 66.318C116.041 64.122 110.209 65.4 110.209 61.728C110.209 60.216 111.631 58.974 113.827 58.974C116.005 58.974 117.445 60.144 117.553 62.07H115.915C115.843 61.08 115.087 60.36 113.773 60.36C112.567 60.36 111.847 60.936 111.847 61.728C111.847 64.068 117.571 62.79 117.643 66.318ZM127.047 66.318C127.047 67.938 125.625 69.162 123.447 69.162C121.143 69.162 119.523 67.902 119.415 66.102H121.107C121.197 67.056 122.043 67.776 123.429 67.776C124.725 67.776 125.445 67.128 125.445 66.318C125.445 64.122 119.613 65.4 119.613 61.728C119.613 60.216 121.035 58.974 123.231 58.974C125.409 58.974 126.849 60.144 126.957 62.07H125.319C125.247 61.08 124.491 60.36 123.177 60.36C121.971 60.36 121.251 60.936 121.251 61.728C121.251 64.068 126.975 62.79 127.047 66.318ZM129.36 69V59.136H130.998V69H129.36ZM130.206 57.534C129.576 57.534 129.09 57.048 129.09 56.418C129.09 55.788 129.576 55.302 130.206 55.302C130.8 55.302 131.286 55.788 131.286 56.418C131.286 57.048 130.8 57.534 130.206 57.534ZM143.149 64.05C143.149 67.182 140.899 69.162 138.091 69.162C135.301 69.162 133.177 67.182 133.177 64.05C133.177 60.936 135.373 58.974 138.163 58.974C140.971 58.974 143.149 60.936 143.149 64.05ZM134.851 64.05C134.851 66.552 136.381 67.722 138.091 67.722C139.801 67.722 141.475 66.552 141.475 64.05C141.475 61.566 139.837 60.396 138.145 60.396C136.417 60.396 134.851 61.566 134.851 64.05ZM152.521 69V63.42C152.521 61.404 151.423 60.378 149.767 60.378C148.093 60.378 146.941 61.422 146.941 63.546V69H145.303V59.136H146.941V60.54C147.589 59.514 148.777 58.956 150.109 58.956C152.395 58.956 154.141 60.36 154.141 63.186V69H152.521ZM156.205 64.032C156.205 60.954 158.239 58.974 160.885 58.974C162.721 58.974 163.981 59.91 164.557 60.936V59.136H166.213V69H164.557V67.164C163.963 68.226 162.685 69.162 160.867 69.162C158.239 69.162 156.205 67.092 156.205 64.032ZM164.557 64.05C164.557 61.764 163.009 60.396 161.209 60.396C159.409 60.396 157.879 61.71 157.879 64.032C157.879 66.354 159.409 67.722 161.209 67.722C163.009 67.722 164.557 66.372 164.557 64.05ZM168.981 69V55.68H170.619V69H168.981ZM177.597 64.05C177.597 60.954 179.595 58.974 182.403 58.974C184.851 58.974 186.453 60.234 186.957 62.304H185.193C184.851 61.116 183.861 60.36 182.403 60.36C180.603 60.36 179.271 61.638 179.271 64.05C179.271 66.498 180.603 67.776 182.403 67.776C183.861 67.776 184.833 67.074 185.193 65.832H186.957C186.453 67.794 184.851 69.162 182.403 69.162C179.595 69.162 177.597 67.182 177.597 64.05ZM198.503 64.05C198.503 67.182 196.253 69.162 193.445 69.162C190.655 69.162 188.531 67.182 188.531 64.05C188.531 60.936 190.727 58.974 193.517 58.974C196.325 58.974 198.503 60.936 198.503 64.05ZM190.205 64.05C190.205 66.552 191.735 67.722 193.445 67.722C195.155 67.722 196.829 66.552 196.829 64.05C196.829 61.566 195.191 60.396 193.499 60.396C191.771 60.396 190.205 61.566 190.205 64.05ZM207.875 69V63.42C207.875 61.404 206.777 60.378 205.121 60.378C203.447 60.378 202.295 61.422 202.295 63.546V69H200.657V59.136H202.295V60.54C202.943 59.514 204.131 58.956 205.463 58.956C207.749 58.956 209.495 60.36 209.495 63.186V69H207.875ZM212.53 66.3V60.486H211.252V59.136H212.53V56.652H214.168V59.136H216.742V60.486H214.168V66.3C214.168 67.272 214.528 67.614 215.536 67.614H216.742V69H215.266C213.52 69 212.53 68.28 212.53 66.3ZM222.921 60.36C221.319 60.36 219.987 61.422 219.807 63.348H226.035C226.053 61.422 224.613 60.36 222.921 60.36ZM227.529 65.958C227.025 67.758 225.441 69.162 222.993 69.162C220.185 69.162 218.115 67.182 218.115 64.05C218.115 60.936 220.113 58.974 222.993 58.974C225.855 58.974 227.727 60.99 227.727 63.69C227.727 64.05 227.709 64.338 227.673 64.68H219.789C219.915 66.678 221.319 67.776 222.993 67.776C224.469 67.776 225.405 67.02 225.765 65.958H227.529ZM237.107 69V63.42C237.107 61.404 236.009 60.378 234.353 60.378C232.679 60.378 231.527 61.422 231.527 63.546V69H229.889V59.136H231.527V60.54C232.175 59.514 233.363 58.956 234.695 58.956C236.981 58.956 238.727 60.36 238.727 63.186V69H237.107ZM241.763 66.3V60.486H240.485V59.136H241.763V56.652H243.401V59.136H245.975V60.486H243.401V66.3C243.401 67.272 243.761 67.614 244.769 67.614H245.975V69H244.499C242.753 69 241.763 68.28 241.763 66.3Z"
              fill="black"
            />
          </svg>