<svg
            width="310"
            height="76"
            viewBox="0 0 310 76"
            fill="none"
            xmlns="http://www.w3.org/2000/svg"
          >
            <path
              d="M164.257 10.2571C166.814 10.2571 168.886 8.18486 168.886 5.62857C168.886 3.07228 166.814 1 164.257 1C161.701 1 159.629 3.07228 159.629 5.62857C159.629 8.18486 161.701 10.2571 164.257 10.2571Z"
              stroke="black"
              stroke-width="2"
              stroke-linecap="round"
              stroke-linejoin="round"
            />
            <path
              d="M171.2 21.8292V19.5149C171.2 15.6804 168.092 12.5719 164.257 12.5719C161.642 12.5719 159.365 14.0173 158.181 16.1527"
              stroke="black"
              stroke-width="2"
              stroke-linecap="round"
              stroke-linejoin="round"
            />
            <path
              d="M145.743 10.2571C148.299 10.2571 150.372 8.18486 150.372 5.62857C150.372 3.07228 148.299 1 145.743 1C143.187 1 141.115 3.07228 141.115 5.62857C141.115 8.18486 143.187 10.2571 145.743 10.2571Z"
              stroke="black"
              stroke-width="2"
              stroke-linecap="round"
              stroke-linejoin="round"
            />
            <path
              d="M138.8 21.8292V19.5149C138.8 15.6804 141.909 12.5719 145.743 12.5719C148.358 12.5719 150.635 14.0173 151.819 16.1527"
              stroke="black"
              stroke-width="2"
              stroke-linecap="round"
              stroke-linejoin="round"
            />
            <path
              d="M155.003 24.1377C157.559 24.1377 159.631 22.0654 159.631 19.5091C159.631 16.9529 157.559 14.8806 155.003 14.8806C152.447 14.8806 150.374 16.9529 150.374 19.5091C150.374 22.0654 152.447 24.1377 155.003 24.1377Z"
              stroke="black"
              stroke-width="2"
              stroke-linecap="round"
              stroke-linejoin="round"
            />
            <path
              d="M161.946 33.3946C161.946 29.5601 158.838 26.4517 155.003 26.4517C151.169 26.4517 148.06 29.5601 148.06 33.3946"
              stroke="black"
              stroke-width="2"
              stroke-linecap="round"
              stroke-linejoin="round"
            />
            <path
              d="M52.0241 53.8306H53.6621V66.3946H52.0241L45.4361 56.4046V66.3946H43.7981V53.8306H45.4361L52.0241 63.8026V53.8306ZM60.6484 57.7546C59.0464 57.7546 57.7144 58.8166 57.5344 60.7426H63.7624C63.7804 58.8166 62.3404 57.7546 60.6484 57.7546ZM65.2564 63.3526C64.7524 65.1526 63.1684 66.5566 60.7204 66.5566C57.9124 66.5566 55.8424 64.5766 55.8424 61.4446C55.8424 58.3306 57.8404 56.3686 60.7204 56.3686C63.5824 56.3686 65.4544 58.3846 65.4544 61.0846C65.4544 61.4446 65.4364 61.7326 65.4004 62.0746H57.5164C57.6424 64.0726 59.0464 65.1706 60.7204 65.1706C62.1964 65.1706 63.1324 64.4146 63.4924 63.3526H65.2564ZM67.9765 63.6946V57.8806H66.6985V56.5306H67.9765V54.0466H69.6145V56.5306H72.1885V57.8806H69.6145V63.6946C69.6145 64.6666 69.9745 65.0086 70.9825 65.0086H72.1885V66.3946H70.7125C68.9665 66.3946 67.9765 65.6746 67.9765 63.6946ZM76.0991 66.3946L73.0031 56.5306H74.6771L76.9451 64.8106L79.3931 56.5306H81.0671L83.4611 64.8286L85.6931 56.5306H87.3131L84.2351 66.3946H82.5431L80.1671 58.5646L77.7911 66.3946H76.0991ZM98.2987 61.4446C98.2987 64.5766 96.0487 66.5566 93.2407 66.5566C90.4507 66.5566 88.3267 64.5766 88.3267 61.4446C88.3267 58.3306 90.5227 56.3686 93.3127 56.3686C96.1207 56.3686 98.2987 58.3306 98.2987 61.4446ZM90.0007 61.4446C90.0007 63.9466 91.5307 65.1166 93.2407 65.1166C94.9507 65.1166 96.6247 63.9466 96.6247 61.4446C96.6247 58.9606 94.9867 57.7906 93.2947 57.7906C91.5667 57.7906 90.0007 58.9606 90.0007 61.4446ZM102.09 61.0306V66.3946H100.452V56.5306H102.09V58.1326C102.648 57.0346 103.71 56.3506 105.276 56.3506V58.0426H104.844C103.278 58.0426 102.09 58.7446 102.09 61.0306ZM107.167 66.3946V53.0746H108.805V60.9046L112.603 56.5306H114.889L110.245 61.4446L114.907 66.3946H112.675L108.805 62.0386V66.3946H107.167ZM116.431 66.3946V56.5306H118.069V66.3946H116.431ZM117.277 54.9286C116.647 54.9286 116.161 54.4426 116.161 53.8126C116.161 53.1826 116.647 52.6966 117.277 52.6966C117.871 52.6966 118.357 53.1826 118.357 53.8126C118.357 54.4426 117.871 54.9286 117.277 54.9286ZM128.079 66.3946V60.8146C128.079 58.7986 126.981 57.7726 125.325 57.7726C123.651 57.7726 122.499 58.8166 122.499 60.9406V66.3946H120.861V56.5306H122.499V57.9346C123.147 56.9086 124.335 56.3506 125.667 56.3506C127.953 56.3506 129.699 57.7546 129.699 60.5806V66.3946H128.079ZM131.762 61.4266C131.762 58.3486 133.796 56.3686 136.442 56.3686C138.242 56.3686 139.538 57.2686 140.114 58.3306V56.5306H141.77V66.6106C141.77 69.3286 139.952 71.2546 137.054 71.2546C134.462 71.2546 132.608 69.9406 132.284 67.8346H133.904C134.264 69.0226 135.434 69.8326 137.054 69.8326C138.8 69.8326 140.114 68.7166 140.114 66.6106V64.5406C139.52 65.6026 138.242 66.5566 136.442 66.5566C133.796 66.5566 131.762 64.4866 131.762 61.4266ZM140.114 61.4446C140.114 59.1586 138.566 57.7906 136.766 57.7906C134.966 57.7906 133.436 59.1046 133.436 61.4266C133.436 63.7486 134.966 65.1166 136.766 65.1166C138.566 65.1166 140.114 63.7666 140.114 61.4446ZM158.697 61.4446C158.697 64.5766 156.447 66.5566 153.639 66.5566C150.849 66.5566 148.725 64.5766 148.725 61.4446C148.725 58.3306 150.921 56.3686 153.711 56.3686C156.519 56.3686 158.697 58.3306 158.697 61.4446ZM150.399 61.4446C150.399 63.9466 151.929 65.1166 153.639 65.1166C155.349 65.1166 157.023 63.9466 157.023 61.4446C157.023 58.9606 155.385 57.7906 153.693 57.7906C151.965 57.7906 150.399 58.9606 150.399 61.4446ZM162.489 58.3486C163.083 57.3046 164.379 56.3686 166.179 56.3686C168.825 56.3686 170.859 58.3486 170.859 61.4266C170.859 64.4866 168.825 66.5566 166.179 66.5566C164.379 66.5566 163.101 65.5846 162.489 64.5766V71.0746H160.851V56.5306H162.489V58.3486ZM169.185 61.4266C169.185 59.1046 167.655 57.7906 165.837 57.7906C164.055 57.7906 162.489 59.1586 162.489 61.4446C162.489 63.7666 164.055 65.1166 165.837 65.1166C167.655 65.1166 169.185 63.7486 169.185 61.4266ZM174.653 58.3486C175.247 57.3046 176.543 56.3686 178.343 56.3686C180.989 56.3686 183.023 58.3486 183.023 61.4266C183.023 64.4866 180.989 66.5566 178.343 66.5566C176.543 66.5566 175.265 65.5846 174.653 64.5766V71.0746H173.015V56.5306H174.653V58.3486ZM181.349 61.4266C181.349 59.1046 179.819 57.7906 178.001 57.7906C176.219 57.7906 174.653 59.1586 174.653 61.4446C174.653 63.7666 176.219 65.1166 178.001 65.1166C179.819 65.1166 181.349 63.7486 181.349 61.4266ZM194.539 61.4446C194.539 64.5766 192.289 66.5566 189.481 66.5566C186.691 66.5566 184.567 64.5766 184.567 61.4446C184.567 58.3306 186.763 56.3686 189.553 56.3686C192.361 56.3686 194.539 58.3306 194.539 61.4446ZM186.241 61.4446C186.241 63.9466 187.771 65.1166 189.481 65.1166C191.191 65.1166 192.865 63.9466 192.865 61.4446C192.865 58.9606 191.227 57.7906 189.535 57.7906C187.807 57.7906 186.241 58.9606 186.241 61.4446ZM198.331 61.0306V66.3946H196.693V56.5306H198.331V58.1326C198.889 57.0346 199.951 56.3506 201.517 56.3506V58.0426H201.085C199.519 58.0426 198.331 58.7446 198.331 61.0306ZM203.767 63.6946V57.8806H202.489V56.5306H203.767V54.0466H205.405V56.5306H207.979V57.8806H205.405V63.6946C205.405 64.6666 205.765 65.0086 206.773 65.0086H207.979V66.3946H206.503C204.757 66.3946 203.767 65.6746 203.767 63.6946ZM218.712 56.5306V66.3946H217.074V64.9366C216.444 65.9626 215.238 66.5386 213.924 66.5386C211.656 66.5386 209.874 65.1346 209.874 62.3086V56.5306H211.494V62.0926C211.494 64.0906 212.592 65.1166 214.248 65.1166C215.94 65.1166 217.074 64.0726 217.074 61.9486V56.5306H218.712ZM228.696 66.3946V60.8146C228.696 58.7986 227.598 57.7726 225.942 57.7726C224.268 57.7726 223.116 58.8166 223.116 60.9406V66.3946H221.478V56.5306H223.116V57.9346C223.764 56.9086 224.952 56.3506 226.284 56.3506C228.57 56.3506 230.316 57.7546 230.316 60.5806V66.3946H228.696ZM232.991 66.3946V56.5306H234.629V66.3946H232.991ZM233.837 54.9286C233.207 54.9286 232.721 54.4426 232.721 53.8126C232.721 53.1826 233.207 52.6966 233.837 52.6966C234.431 52.6966 234.917 53.1826 234.917 53.8126C234.917 54.4426 234.431 54.9286 233.837 54.9286ZM237.781 63.6946V57.8806H236.503V56.5306H237.781V54.0466H239.419V56.5306H241.993V57.8806H239.419V63.6946C239.419 64.6666 239.779 65.0086 240.787 65.0086H241.993V66.3946H240.517C238.771 66.3946 237.781 65.6746 237.781 63.6946ZM243.978 66.3946V56.5306H245.616V66.3946H243.978ZM244.824 54.9286C244.194 54.9286 243.708 54.4426 243.708 53.8126C243.708 53.1826 244.194 52.6966 244.824 52.6966C245.418 52.6966 245.904 53.1826 245.904 53.8126C245.904 54.4426 245.418 54.9286 244.824 54.9286ZM252.601 57.7546C250.999 57.7546 249.667 58.8166 249.487 60.7426H255.715C255.733 58.8166 254.293 57.7546 252.601 57.7546ZM257.209 63.3526C256.705 65.1526 255.121 66.5566 252.673 66.5566C249.865 66.5566 247.795 64.5766 247.795 61.4446C247.795 58.3306 249.793 56.3686 252.673 56.3686C255.535 56.3686 257.407 58.3846 257.407 61.0846C257.407 61.4446 257.389 61.7326 257.353 62.0746H249.469C249.595 64.0726 250.999 65.1706 252.673 65.1706C254.149 65.1706 255.085 64.4146 255.445 63.3526H257.209ZM266.662 63.7126C266.662 65.3326 265.24 66.5566 263.062 66.5566C260.758 66.5566 259.138 65.2966 259.03 63.4966H260.722C260.812 64.4506 261.658 65.1706 263.044 65.1706C264.34 65.1706 265.06 64.5226 265.06 63.7126C265.06 61.5166 259.228 62.7946 259.228 59.1226C259.228 57.6106 260.65 56.3686 262.846 56.3686C265.024 56.3686 266.464 57.5386 266.572 59.4646H264.934C264.862 58.4746 264.106 57.7546 262.792 57.7546C261.586 57.7546 260.866 58.3306 260.866 59.1226C260.866 61.4626 266.59 60.1846 266.662 63.7126Z"
              fill="black"
            />
          </svg>