<svg
            width="310"
            height="77"
            viewBox="0 0 310 77"
            fill="none"
            xmlns="http://www.w3.org/2000/svg"
          >
            <path
              d="M164.257 16.25C167.666 16.25 170.429 12.8921 170.429 8.75C170.429 4.60788 167.666 1.25 164.257 1.25C160.849 1.25 158.086 4.60788 158.086 8.75C158.086 12.8921 160.849 16.25 164.257 16.25Z"
              stroke="black"
              stroke-width="2"
              stroke-linecap="round"
              stroke-linejoin="round"
            />
            <path
              d="M164.257 16.25V33.75"
              stroke="black"
              stroke-width="2"
              stroke-linecap="round"
              stroke-linejoin="round"
            />
            <path
              d="M146 1.25V33.75"
              stroke="black"
              stroke-width="2"
              stroke-linecap="round"
              stroke-linejoin="round"
            />
            <path
              d="M152.429 1.25V7.5C152.429 8.32075 152.262 9.13348 151.939 9.89178C151.616 10.6501 151.143 11.339 150.546 11.9194C149.949 12.4998 149.24 12.9602 148.46 13.2743C147.68 13.5884 146.844 13.75 146 13.75C144.295 13.75 142.66 13.0915 141.454 11.9194C140.249 10.7473 139.571 9.1576 139.571 7.5V1.25"
              stroke="black"
              stroke-width="2"
              stroke-linecap="round"
              stroke-linejoin="round"
            />
            <path
              d="M42.3076 55.454C46.4296 55.454 48.9676 57.866 48.9676 61.754C48.9676 65.642 46.4296 68 42.3076 68H38.4016V55.454H42.3076ZM40.0396 66.65H42.3076C45.5836 66.65 47.2936 64.814 47.2936 61.754C47.2936 58.694 45.5836 56.786 42.3076 56.786H40.0396V66.65ZM55.3222 59.36C53.7202 59.36 52.3882 60.422 52.2082 62.348H58.4362C58.4542 60.422 57.0142 59.36 55.3222 59.36ZM59.9302 64.958C59.4262 66.758 57.8422 68.162 55.3942 68.162C52.5862 68.162 50.5162 66.182 50.5162 63.05C50.5162 59.936 52.5142 57.974 55.3942 57.974C58.2562 57.974 60.1282 59.99 60.1282 62.69C60.1282 63.05 60.1102 63.338 60.0742 63.68H52.1902C52.3162 65.678 53.7202 66.776 55.3942 66.776C56.8702 66.776 57.8062 66.02 58.1662 64.958H59.9302ZM62.2903 68V54.68H63.9283V68H62.2903ZM66.72 68V58.136H68.358V68H66.72ZM67.566 56.534C66.936 56.534 66.45 56.048 66.45 55.418C66.45 54.788 66.936 54.302 67.566 54.302C68.16 54.302 68.646 54.788 68.646 55.418C68.646 56.048 68.16 56.534 67.566 56.534ZM70.5377 63.05C70.5377 59.954 72.5357 57.974 75.3437 57.974C77.7917 57.974 79.3937 59.234 79.8977 61.304H78.1337C77.7917 60.116 76.8017 59.36 75.3437 59.36C73.5437 59.36 72.2117 60.638 72.2117 63.05C72.2117 65.498 73.5437 66.776 75.3437 66.776C76.8017 66.776 77.7737 66.074 78.1337 64.832H79.8977C79.3937 66.794 77.7917 68.162 75.3437 68.162C72.5357 68.162 70.5377 66.182 70.5377 63.05ZM82.0833 68V58.136H83.7213V68H82.0833ZM82.9293 56.534C82.2993 56.534 81.8133 56.048 81.8133 55.418C81.8133 54.788 82.2993 54.302 82.9293 54.302C83.5233 54.302 84.0093 54.788 84.0093 55.418C84.0093 56.048 83.5233 56.534 82.9293 56.534ZM95.873 63.05C95.873 66.182 93.623 68.162 90.815 68.162C88.025 68.162 85.901 66.182 85.901 63.05C85.901 59.936 88.097 57.974 90.887 57.974C93.695 57.974 95.873 59.936 95.873 63.05ZM87.575 63.05C87.575 65.552 89.105 66.722 90.815 66.722C92.525 66.722 94.199 65.552 94.199 63.05C94.199 60.566 92.561 59.396 90.869 59.396C89.141 59.396 87.575 60.566 87.575 63.05ZM106.775 58.136V68H105.137V66.542C104.507 67.568 103.301 68.144 101.987 68.144C99.7186 68.144 97.9366 66.74 97.9366 63.914V58.136H99.5566V63.698C99.5566 65.696 100.655 66.722 102.311 66.722C104.003 66.722 105.137 65.678 105.137 63.554V58.136H106.775ZM116.632 65.318C116.632 66.938 115.21 68.162 113.032 68.162C110.728 68.162 109.108 66.902 109 65.102H110.692C110.782 66.056 111.628 66.776 113.014 66.776C114.31 66.776 115.03 66.128 115.03 65.318C115.03 63.122 109.198 64.4 109.198 60.728C109.198 59.216 110.62 57.974 112.816 57.974C114.994 57.974 116.434 59.144 116.542 61.07H114.904C114.832 60.08 114.076 59.36 112.762 59.36C111.556 59.36 110.836 59.936 110.836 60.728C110.836 63.068 116.56 61.79 116.632 65.318ZM124.049 68V59.486H122.771V58.136H124.049V57.434C124.049 55.238 125.129 54.248 127.649 54.248V55.616C126.173 55.616 125.687 56.156 125.687 57.434V58.136H127.757V59.486H125.687V68H124.049ZM139.027 63.05C139.027 66.182 136.777 68.162 133.969 68.162C131.179 68.162 129.055 66.182 129.055 63.05C129.055 59.936 131.251 57.974 134.041 57.974C136.849 57.974 139.027 59.936 139.027 63.05ZM130.729 63.05C130.729 65.552 132.259 66.722 133.969 66.722C135.679 66.722 137.353 65.552 137.353 63.05C137.353 60.566 135.715 59.396 134.023 59.396C132.295 59.396 130.729 60.566 130.729 63.05ZM150.541 63.05C150.541 66.182 148.291 68.162 145.483 68.162C142.693 68.162 140.569 66.182 140.569 63.05C140.569 59.936 142.765 57.974 145.555 57.974C148.363 57.974 150.541 59.936 150.541 63.05ZM142.243 63.05C142.243 65.552 143.773 66.722 145.483 66.722C147.193 66.722 148.867 65.552 148.867 63.05C148.867 60.566 147.229 59.396 145.537 59.396C143.809 59.396 142.243 60.566 142.243 63.05ZM152.083 63.032C152.083 59.954 154.117 57.974 156.781 57.974C158.329 57.974 159.751 58.766 160.435 59.9V54.68H162.091V68H160.435V66.146C159.841 67.244 158.563 68.162 156.763 68.162C154.117 68.162 152.083 66.092 152.083 63.032ZM160.435 63.05C160.435 60.764 158.887 59.396 157.087 59.396C155.287 59.396 153.757 60.71 153.757 63.032C153.757 65.354 155.287 66.722 157.087 66.722C158.887 66.722 160.435 65.372 160.435 63.05ZM169.045 63.032C169.045 59.954 171.079 57.974 173.725 57.974C175.561 57.974 176.821 58.91 177.397 59.936V58.136H179.053V68H177.397V66.164C176.803 67.226 175.525 68.162 173.707 68.162C171.079 68.162 169.045 66.092 169.045 63.032ZM177.397 63.05C177.397 60.764 175.849 59.396 174.049 59.396C172.249 59.396 170.719 60.71 170.719 63.032C170.719 65.354 172.249 66.722 174.049 66.722C175.849 66.722 177.397 65.372 177.397 63.05ZM181.822 68V54.68H183.46V68H181.822ZM186.251 68V54.68H187.889V68H186.251ZM194.868 63.032C194.868 59.954 196.902 57.974 199.566 57.974C201.114 57.974 202.536 58.766 203.22 59.9V54.68H204.876V68H203.22V66.146C202.626 67.244 201.348 68.162 199.548 68.162C196.902 68.162 194.868 66.092 194.868 63.032ZM203.22 63.05C203.22 60.764 201.672 59.396 199.872 59.396C198.072 59.396 196.542 60.71 196.542 63.032C196.542 65.354 198.072 66.722 199.872 66.722C201.672 66.722 203.22 65.372 203.22 63.05ZM207.032 63.032C207.032 59.954 209.066 57.974 211.712 57.974C213.548 57.974 214.808 58.91 215.384 59.936V58.136H217.04V68H215.384V66.164C214.79 67.226 213.512 68.162 211.694 68.162C209.066 68.162 207.032 66.092 207.032 63.032ZM215.384 63.05C215.384 60.764 213.836 59.396 212.036 59.396C210.236 59.396 208.706 60.71 208.706 63.032C208.706 65.354 210.236 66.722 212.036 66.722C213.836 66.722 215.384 65.372 215.384 63.05ZM223.552 66.128L226.612 58.136H228.304L222.364 72.644H220.672L222.616 67.892L218.638 58.136H220.456L223.552 66.128ZM234.749 68V54.68H236.387V68H234.749ZM248.539 63.05C248.539 66.182 246.289 68.162 243.481 68.162C240.691 68.162 238.567 66.182 238.567 63.05C238.567 59.936 240.763 57.974 243.553 57.974C246.361 57.974 248.539 59.936 248.539 63.05ZM240.241 63.05C240.241 65.552 241.771 66.722 243.481 66.722C245.191 66.722 246.865 65.552 246.865 63.05C246.865 60.566 245.227 59.396 243.535 59.396C241.807 59.396 240.241 60.566 240.241 63.05ZM257.911 68V62.42C257.911 60.404 256.813 59.378 255.157 59.378C253.483 59.378 252.331 60.422 252.331 62.546V68H250.693V58.136H252.331V59.54C252.979 58.514 254.167 57.956 255.499 57.956C257.785 57.956 259.531 59.36 259.531 62.186V68H257.911ZM261.594 63.032C261.594 59.954 263.628 57.974 266.274 57.974C268.074 57.974 269.37 58.874 269.946 59.936V58.136H271.602V68.216C271.602 70.934 269.784 72.86 266.886 72.86C264.294 72.86 262.44 71.546 262.116 69.44H263.736C264.096 70.628 265.266 71.438 266.886 71.438C268.632 71.438 269.946 70.322 269.946 68.216V66.146C269.352 67.208 268.074 68.162 266.274 68.162C263.628 68.162 261.594 66.092 261.594 63.032ZM269.946 63.05C269.946 60.764 268.398 59.396 266.598 59.396C264.798 59.396 263.268 60.71 263.268 63.032C263.268 65.354 264.798 66.722 266.598 66.722C268.398 66.722 269.946 65.372 269.946 63.05Z"
              fill="black"
            />
          </svg>