<svg
                      width="213"
                      height="107"
                      viewBox="0 0 213 107"
                      fill="none"
                      xmlns="http://www.w3.org/2000/svg"
                    >
                      <g filter="url(#filter0_bd_59_754)">
                        <rect
                          x="31.5"
                          y="27"
                          width="150"
                          height="45"
                          rx="8"
                          fill="#F6F9FF"
                          fill-opacity="0.5"
                          shape-rendering="crispEdges"
                        />
                        <rect
                          x="32.5"
                          y="28"
                          width="148"
                          height="43"
                          rx="7"
                          stroke="white"
                          stroke-width="2"
                          shape-rendering="crispEdges"
                        />
                        <path
                          d="M57.978 54L55.738 50.108H54.52V54H52.924V44.27H56.284C57.0307 44.27 57.6607 44.4007 58.174 44.662C58.6967 44.9233 59.084 45.2733 59.336 45.712C59.5974 46.1507 59.728 46.6407 59.728 47.182C59.728 47.8167 59.5414 48.3953 59.168 48.918C58.804 49.4313 58.2394 49.7813 57.474 49.968L59.882 54H57.978ZM54.52 48.834H56.284C56.8814 48.834 57.3294 48.6847 57.628 48.386C57.936 48.0873 58.09 47.686 58.09 47.182C58.09 46.678 57.9407 46.286 57.642 46.006C57.3434 45.7167 56.8907 45.572 56.284 45.572H54.52V48.834ZM68.8397 49.954C68.8397 50.2433 68.8211 50.5047 68.7837 50.738H62.8897C62.9364 51.354 63.1651 51.8487 63.5757 52.222C63.9864 52.5953 64.4904 52.782 65.0877 52.782C65.9464 52.782 66.5531 52.4227 66.9077 51.704H68.6297C68.3964 52.4133 67.9717 52.9967 67.3557 53.454C66.7491 53.902 65.9931 54.126 65.0877 54.126C64.3504 54.126 63.6877 53.9627 63.0997 53.636C62.5211 53.3 62.0637 52.8333 61.7277 52.236C61.4011 51.6293 61.2377 50.9293 61.2377 50.136C61.2377 49.3427 61.3964 48.6473 61.7137 48.05C62.0404 47.4433 62.4931 46.9767 63.0717 46.65C63.6597 46.3233 64.3317 46.16 65.0877 46.16C65.8157 46.16 66.4644 46.3187 67.0337 46.636C67.6031 46.9533 68.0464 47.4013 68.3637 47.98C68.6811 48.5493 68.8397 49.2073 68.8397 49.954ZM67.1737 49.45C67.1644 48.862 66.9544 48.3907 66.5437 48.036C66.1331 47.6813 65.6244 47.504 65.0177 47.504C64.4671 47.504 63.9957 47.6813 63.6037 48.036C63.2117 48.3813 62.9784 48.8527 62.9037 49.45H67.1737ZM69.8784 50.136C69.8784 49.3427 70.037 48.6473 70.3544 48.05C70.681 47.4433 71.129 46.9767 71.6984 46.65C72.2677 46.3233 72.921 46.16 73.6584 46.16C74.5917 46.16 75.3617 46.384 75.9684 46.832C76.5844 47.2707 76.9997 47.9007 77.2144 48.722H75.4924C75.3524 48.3393 75.1284 48.0407 74.8204 47.826C74.5124 47.6113 74.125 47.504 73.6584 47.504C73.005 47.504 72.4824 47.7373 72.0904 48.204C71.7077 48.6613 71.5164 49.3053 71.5164 50.136C71.5164 50.9667 71.7077 51.6153 72.0904 52.082C72.4824 52.5487 73.005 52.782 73.6584 52.782C74.5824 52.782 75.1937 52.376 75.4924 51.564H77.2144C76.9904 52.348 76.5704 52.9733 75.9544 53.44C75.3384 53.8973 74.573 54.126 73.6584 54.126C72.921 54.126 72.2677 53.9627 71.6984 53.636C71.129 53.3 70.681 52.8333 70.3544 52.236C70.037 51.6293 69.8784 50.9293 69.8784 50.136ZM82.1509 54.126C81.4229 54.126 80.7649 53.9627 80.1769 53.636C79.5889 53.3 79.1269 52.8333 78.7909 52.236C78.4549 51.6293 78.2869 50.9293 78.2869 50.136C78.2869 49.352 78.4595 48.6567 78.8049 48.05C79.1502 47.4433 79.6215 46.9767 80.2189 46.65C80.8162 46.3233 81.4835 46.16 82.2209 46.16C82.9582 46.16 83.6255 46.3233 84.2229 46.65C84.8202 46.9767 85.2915 47.4433 85.6369 48.05C85.9822 48.6567 86.1549 49.352 86.1549 50.136C86.1549 50.92 85.9775 51.6153 85.6229 52.222C85.2682 52.8287 84.7829 53.3 84.1669 53.636C83.5602 53.9627 82.8882 54.126 82.1509 54.126ZM82.1509 52.74C82.5615 52.74 82.9442 52.642 83.2989 52.446C83.6629 52.25 83.9569 51.956 84.1809 51.564C84.4049 51.172 84.5169 50.696 84.5169 50.136C84.5169 49.576 84.4095 49.1047 84.1949 48.722C83.9802 48.33 83.6955 48.036 83.3409 47.84C82.9862 47.644 82.6035 47.546 82.1929 47.546C81.7822 47.546 81.3995 47.644 81.0449 47.84C80.6995 48.036 80.4242 48.33 80.2189 48.722C80.0135 49.1047 79.9109 49.576 79.9109 50.136C79.9109 50.9667 80.1209 51.6107 80.5409 52.068C80.9702 52.516 81.5069 52.74 82.1509 52.74ZM97.0706 46.16C97.6773 46.16 98.2186 46.286 98.6946 46.538C99.18 46.79 99.558 47.1633 99.8286 47.658C100.109 48.1527 100.249 48.75 100.249 49.45V54H98.6666V49.688C98.6666 48.9973 98.494 48.47 98.1486 48.106C97.8033 47.7327 97.332 47.546 96.7346 47.546C96.1373 47.546 95.6613 47.7327 95.3066 48.106C94.9613 48.47 94.7886 48.9973 94.7886 49.688V54H93.2066V49.688C93.2066 48.9973 93.034 48.47 92.6886 48.106C92.3433 47.7327 91.872 47.546 91.2746 47.546C90.6773 47.546 90.2013 47.7327 89.8466 48.106C89.5013 48.47 89.3286 48.9973 89.3286 49.688V54H87.7326V46.286H89.3286V47.168C89.59 46.8507 89.9213 46.6033 90.3226 46.426C90.724 46.2487 91.1533 46.16 91.6106 46.16C92.2266 46.16 92.7773 46.2907 93.2626 46.552C93.748 46.8133 94.1213 47.1913 94.3826 47.686C94.616 47.2193 94.98 46.8507 95.4746 46.58C95.9693 46.3 96.5013 46.16 97.0706 46.16ZM111.617 46.16C112.224 46.16 112.765 46.286 113.241 46.538C113.727 46.79 114.105 47.1633 114.375 47.658C114.655 48.1527 114.795 48.75 114.795 49.45V54H113.213V49.688C113.213 48.9973 113.041 48.47 112.695 48.106C112.35 47.7327 111.879 47.546 111.281 47.546C110.684 47.546 110.208 47.7327 109.853 48.106C109.508 48.47 109.335 48.9973 109.335 49.688V54H107.753V49.688C107.753 48.9973 107.581 48.47 107.235 48.106C106.89 47.7327 106.419 47.546 105.821 47.546C105.224 47.546 104.748 47.7327 104.393 48.106C104.048 48.47 103.875 48.9973 103.875 49.688V54H102.279V46.286H103.875V47.168C104.137 46.8507 104.468 46.6033 104.869 46.426C105.271 46.2487 105.7 46.16 106.157 46.16C106.773 46.16 107.324 46.2907 107.809 46.552C108.295 46.8133 108.668 47.1913 108.929 47.686C109.163 47.2193 109.527 46.8507 110.021 46.58C110.516 46.3 111.048 46.16 111.617 46.16ZM123.896 49.954C123.896 50.2433 123.878 50.5047 123.84 50.738H117.946C117.993 51.354 118.222 51.8487 118.632 52.222C119.043 52.5953 119.547 52.782 120.144 52.782C121.003 52.782 121.61 52.4227 121.964 51.704H123.686C123.453 52.4133 123.028 52.9967 122.412 53.454C121.806 53.902 121.05 54.126 120.144 54.126C119.407 54.126 118.744 53.9627 118.156 53.636C117.578 53.3 117.12 52.8333 116.784 52.236C116.458 51.6293 116.294 50.9293 116.294 50.136C116.294 49.3427 116.453 48.6473 116.77 48.05C117.097 47.4433 117.55 46.9767 118.128 46.65C118.716 46.3233 119.388 46.16 120.144 46.16C120.872 46.16 121.521 46.3187 122.09 46.636C122.66 46.9533 123.103 47.4013 123.42 47.98C123.738 48.5493 123.896 49.2073 123.896 49.954ZM122.23 49.45C122.221 48.862 122.011 48.3907 121.6 48.036C121.19 47.6813 120.681 47.504 120.074 47.504C119.524 47.504 119.052 47.6813 118.66 48.036C118.268 48.3813 118.035 48.8527 117.96 49.45H122.23ZM129.359 46.16C129.966 46.16 130.507 46.286 130.983 46.538C131.468 46.79 131.846 47.1633 132.117 47.658C132.388 48.1527 132.523 48.75 132.523 49.45V54H130.941V49.688C130.941 48.9973 130.768 48.47 130.423 48.106C130.078 47.7327 129.606 47.546 129.009 47.546C128.412 47.546 127.936 47.7327 127.581 48.106C127.236 48.47 127.063 48.9973 127.063 49.688V54H125.467V46.286H127.063V47.168C127.324 46.8507 127.656 46.6033 128.057 46.426C128.468 46.2487 128.902 46.16 129.359 46.16ZM134.027 50.108C134.027 49.3333 134.185 48.6473 134.503 48.05C134.829 47.4527 135.268 46.9907 135.819 46.664C136.379 46.328 136.999 46.16 137.681 46.16C138.185 46.16 138.679 46.272 139.165 46.496C139.659 46.7107 140.051 47 140.341 47.364V43.64H141.951V54H140.341V52.838C140.079 53.2113 139.715 53.5193 139.249 53.762C138.791 54.0047 138.264 54.126 137.667 54.126C136.995 54.126 136.379 53.958 135.819 53.622C135.268 53.2767 134.829 52.8007 134.503 52.194C134.185 51.578 134.027 50.8827 134.027 50.108ZM140.341 50.136C140.341 49.604 140.229 49.142 140.005 48.75C139.79 48.358 139.505 48.0593 139.151 47.854C138.796 47.6487 138.413 47.546 138.003 47.546C137.592 47.546 137.209 47.6487 136.855 47.854C136.5 48.05 136.211 48.344 135.987 48.736C135.772 49.1187 135.665 49.576 135.665 50.108C135.665 50.64 135.772 51.1067 135.987 51.508C136.211 51.9093 136.5 52.2173 136.855 52.432C137.219 52.6373 137.601 52.74 138.003 52.74C138.413 52.74 138.796 52.6373 139.151 52.432C139.505 52.2267 139.79 51.928 140.005 51.536C140.229 51.1347 140.341 50.668 140.341 50.136ZM151.117 49.954C151.117 50.2433 151.098 50.5047 151.061 50.738H145.167C145.214 51.354 145.442 51.8487 145.853 52.222C146.264 52.5953 146.768 52.782 147.365 52.782C148.224 52.782 148.83 52.4227 149.185 51.704H150.907C150.674 52.4133 150.249 52.9967 149.633 53.454C149.026 53.902 148.27 54.126 147.365 54.126C146.628 54.126 145.965 53.9627 145.377 53.636C144.798 53.3 144.341 52.8333 144.005 52.236C143.678 51.6293 143.515 50.9293 143.515 50.136C143.515 49.3427 143.674 48.6473 143.991 48.05C144.318 47.4433 144.77 46.9767 145.349 46.65C145.937 46.3233 146.609 46.16 147.365 46.16C148.093 46.16 148.742 46.3187 149.311 46.636C149.88 46.9533 150.324 47.4013 150.641 47.98C150.958 48.5493 151.117 49.2073 151.117 49.954ZM149.451 49.45C149.442 48.862 149.232 48.3907 148.821 48.036C148.41 47.6813 147.902 47.504 147.295 47.504C146.744 47.504 146.273 47.6813 145.881 48.036C145.489 48.3813 145.256 48.8527 145.181 49.45H149.451ZM152.156 50.108C152.156 49.3333 152.314 48.6473 152.632 48.05C152.958 47.4527 153.397 46.9907 153.948 46.664C154.508 46.328 155.128 46.16 155.81 46.16C156.314 46.16 156.808 46.272 157.294 46.496C157.788 46.7107 158.18 47 158.47 47.364V43.64H160.08V54H158.47V52.838C158.208 53.2113 157.844 53.5193 157.378 53.762C156.92 54.0047 156.393 54.126 155.796 54.126C155.124 54.126 154.508 53.958 153.948 53.622C153.397 53.2767 152.958 52.8007 152.632 52.194C152.314 51.578 152.156 50.8827 152.156 50.108ZM158.47 50.136C158.47 49.604 158.358 49.142 158.134 48.75C157.919 48.358 157.634 48.0593 157.28 47.854C156.925 47.6487 156.542 47.546 156.132 47.546C155.721 47.546 155.338 47.6487 154.984 47.854C154.629 48.05 154.34 48.344 154.116 48.736C153.901 49.1187 153.794 49.576 153.794 50.108C153.794 50.64 153.901 51.1067 154.116 51.508C154.34 51.9093 154.629 52.2173 154.984 52.432C155.348 52.6373 155.73 52.74 156.132 52.74C156.542 52.74 156.925 52.6373 157.28 52.432C157.634 52.2267 157.919 51.928 158.134 51.536C158.358 51.1347 158.47 50.668 158.47 50.136Z"
                          fill="#625DF1"
                        />
                      </g>
                      <defs>
                        <filter
                          id="filter0_bd_59_754"
                          x="-58"
                          y="-62.5"
                          width="329"
                          height="224"
                          filterUnits="userSpaceOnUse"
                          color-interpolation-filters="sRGB"
                        >
                          <feFlood
                            flood-opacity="0"
                            result="BackgroundImageFix"
                          />
                          <feGaussianBlur
                            in="BackgroundImageFix"
                            stdDeviation="44.75"
                          />
                          <feComposite
                            in2="SourceAlpha"
                            operator="in"
                            result="effect1_backgroundBlur_59_754"
                          />
                          <feColorMatrix
                            in="SourceAlpha"
                            type="matrix"
                            values="0 0 0 0 0 0 0 0 0 0 0 0 0 0 0 0 0 0 127 0"
                            result="hardAlpha"
                          />
                          <feOffset dy="4" />
                          <feGaussianBlur stdDeviation="15.5" />
                          <feComposite in2="hardAlpha" operator="out" />
                          <feColorMatrix
                            type="matrix"
                            values="0 0 0 0 0.60559 0 0 0 0 0.700949 0 0 0 0 0.891667 0 0 0 0.3 0"
                          />
                          <feBlend
                            mode="normal"
                            in2="effect1_backgroundBlur_59_754"
                            result="effect2_dropShadow_59_754"
                          />
                          <feBlend
                            mode="normal"
                            in="SourceGraphic"
                            in2="effect2_dropShadow_59_754"
                            result="shape"
                          />
                        </filter>
                      </defs>
                    </svg>