<svg
                    width="79"
                    height="27"
                    viewBox="0 0 79 27"
                    fill="none"
                    xmlns="http://www.w3.org/2000/svg"
                  >
                    <path
                      fill-rule="evenodd"
                      clip-rule="evenodd"
                      d="M6.13636 21C6.13636 21 12.2727 16.2273 12.2727 12.1364C12.2727 8.79409 9.47864 6 6.13636 6C2.79409 6 0 8.79409 0 12.1364C0 16.2273 6.13636 21 6.13636 21ZM8.18182 12.1364C8.18182 13.266 7.26604 14.1818 6.13636 14.1818C5.00669 14.1818 4.09091 13.266 4.09091 12.1364C4.09091 11.0067 5.00669 10.0909 6.13636 10.0909C7.26604 10.0909 8.18182 11.0067 8.18182 12.1364Z"
                      fill="url(#paint0_linear_58_540)"
                    />
                    <path
                      d="M26.3567 18.272L30.2987 7.454H32.0267L27.2927 20H25.4027L20.6687 7.454H22.4147L26.3567 18.272ZM38.0168 11.36C36.4148 11.36 35.0828 12.422 34.9028 14.348H41.1308C41.1488 12.422 39.7088 11.36 38.0168 11.36ZM42.6248 16.958C42.1208 18.758 40.5368 20.162 38.0888 20.162C35.2808 20.162 33.2108 18.182 33.2108 15.05C33.2108 11.936 35.2088 9.974 38.0888 9.974C40.9508 9.974 42.8228 11.99 42.8228 14.69C42.8228 15.05 42.8048 15.338 42.7688 15.68H34.8848C35.0108 17.678 36.4148 18.776 38.0888 18.776C39.5648 18.776 40.5008 18.02 40.8608 16.958H42.6248ZM52.2029 20V14.42C52.2029 12.404 51.1049 11.378 49.4489 11.378C47.7749 11.378 46.6229 12.422 46.6229 14.546V20H44.9849V10.136H46.6229V11.54C47.2709 10.514 48.4589 9.956 49.7909 9.956C52.0769 9.956 53.8229 11.36 53.8229 14.186V20H52.2029ZM65.2465 10.136V20H63.6085V18.542C62.9785 19.568 61.7725 20.144 60.4585 20.144C58.1905 20.144 56.4085 18.74 56.4085 15.914V10.136H58.0285V15.698C58.0285 17.696 59.1265 18.722 60.7825 18.722C62.4745 18.722 63.6085 17.678 63.6085 15.554V10.136H65.2465ZM72.2062 11.36C70.6042 11.36 69.2722 12.422 69.0922 14.348H75.3202C75.3382 12.422 73.8982 11.36 72.2062 11.36ZM76.8142 16.958C76.3102 18.758 74.7262 20.162 72.2782 20.162C69.4702 20.162 67.4002 18.182 67.4002 15.05C67.4002 11.936 69.3982 9.974 72.2782 9.974C75.1402 9.974 77.0122 11.99 77.0122 14.69C77.0122 15.05 76.9942 15.338 76.9582 15.68H69.0742C69.2002 17.678 70.6042 18.776 72.2782 18.776C73.7542 18.776 74.6902 18.02 75.0502 16.958H76.8142Z"
                      fill="url(#paint1_linear_58_540)"
                    />
                    <defs>
                      <linearGradient
                        id="paint0_linear_58_540"
                        x1="1.36364"
                        y1="5.31818"
                        x2="3.49833"
                        y2="22.517"
                        gradientUnits="userSpaceOnUse"
                      >
                        <stop stop-color="#AA21F9" />
                        <stop offset="0.429254" stop-color="#F431D7" />
                        <stop offset="0.71" stop-color="#EB0D7F" />
                        <stop offset="1" stop-color="#E50040" />
                      </linearGradient>
                      <linearGradient
                        id="paint1_linear_58_540"
                        x1="-26.6391"
                        y1="0.449998"
                        x2="26.7728"
                        y2="50.8296"
                        gradientUnits="userSpaceOnUse"
                      >
                        <stop stop-color="#57E1FF" />
                        <stop offset="0.0001" stop-color="#80F0FF" />
                        <stop offset="0.6" stop-color="#514EFF" />
                        <stop offset="1" stop-color="#F921C9" />
                      </linearGradient>
                    </defs>
                  </svg>